<?xml version="1.0" standalone="no"?>
<!DOCTYPE svg PUBLIC "-//W3C//DTD SVG 20010904//EN"
 "http://www.w3.org/TR/2001/REC-SVG-20010904/DTD/svg10.dtd">
<svg version="1.0" xmlns="http://www.w3.org/2000/svg"
 width="300.000000pt" height="300.000000pt" viewBox="0 0 300.000000 300.000000"
 preserveAspectRatio="xMidYMid meet">
<metadata>
Created by potrace 1.11, written by Peter Selinger 2001-2013
</metadata>
<g transform="translate(0.000000,300.000000) scale(0.100000,-0.100000)"
fill="#000000" stroke="none">
<path d="M1320 2990 c-188 -26 -341 -74 -511 -161 -408 -211 -694 -597 -786
-1064 -27 -137 -24 -416 6 -555 98 -459 377 -831 780 -1039 135 -69 285 -121
426 -147 148 -28 413 -25 555 5 459 97 831 378 1039 780 135 264 186 518 162
807 -20 227 -63 380 -163 575 -205 400 -590 690 -1037 780 -111 22 -370 33
-471 19z m265 -420 c56 -24 101 -64 133 -119 24 -40 27 -56 27 -131 0 -64 -5
-95 -20 -125 -25 -50 -80 -106 -128 -128 l-37 -18 0 -98 0 -99 47 -11 c151
-38 288 -160 339 -301 96 -267 -59 -564 -331 -635 -166 -43 -337 5 -460 129
-221 221 -180 573 87 746 31 20 77 43 102 50 l46 13 0 102 0 103 -45 22 c-51
25 -100 76 -126 134 -26 57 -25 167 2 226 63 139 223 201 364 140z m335 -1925
l0 -105 -430 0 -430 0 0 105 0 105 430 0 430 0 0 -105z"/>
<path d="M1399 2391 c-23 -24 -29 -38 -29 -73 1 -100 106 -144 176 -74 46 46
47 99 5 145 -24 26 -36 31 -76 31 -38 0 -52 -5 -76 -29z"/>
<path d="M1410 1625 c-149 -48 -225 -231 -154 -373 46 -92 133 -144 239 -144
275 0 367 374 122 498 -62 32 -144 39 -207 19z"/>
</g>
</svg>
